<svg fill="#000000" xmlns="http://www.w3.org/2000/svg" viewBox="0 0 26 26" width="208px" height="208px"><path fill="none" stroke="#000000" stroke-miterlimit="10" stroke-width="2" d="M7.546,25h10.909C22.07,25,25,22.07,25,18.454V7.545C25,3.93,22.07,1,18.454,1H7.545C3.93,1,1,3.93,1,7.546v10.909C1,22.07,3.93,25,7.546,25z"/><path fill="none" stroke="#000000" stroke-miterlimit="10" stroke-width="2" d="M13 7A6 6 0 1 0 13 19A6 6 0 1 0 13 7Z"/><path d="M20.5 4A1.5 1.5 0 1 0 20.5 7A1.5 1.5 0 1 0 20.5 4Z"/></svg>