<svg fill="#000000" xmlns="http://www.w3.org/2000/svg" viewBox="0 0 24 24" width="480px" height="480px"><path d="M24,4.3c-0.9,0.4-1.8,0.7-2.8,0.8c1-0.6,1.8-1.6,2.2-2.7c-1,0.6-2,1-3.1,1.2C19.3,2.6,18,2,16.6,2 c-2.7,0-4.9,2.2-4.9,4.9c0,0.4,0,0.8,0.1,1.1C7.7,7.8,4.1,5.9,1.7,2.9C1.2,3.6,1,4.5,1,5.4c0,1.7,0.9,3.2,2.2,4.1 C2.4,9.4,1.6,9.2,1,8.9c0,0,0,0,0,0.1c0,2.4,1.7,4.4,3.9,4.8c-0.4,0.1-0.8,0.2-1.3,0.2c-0.3,0-0.6,0-0.9-0.1c0.6,2,2.4,3.4,4.6,3.4 c-1.7,1.3-3.8,2.1-6.1,2.1c-0.4,0-0.8,0-1.2-0.1c2.2,1.4,4.8,2.2,7.5,2.2c9.1,0,14-7.5,14-14c0-0.2,0-0.4,0-0.6 C22.5,6.2,23.3,5.3,24,4.3"/></svg>